<svg style="display: none"><symbol id="symbol"><title>symbol</title> <symbol id="symbol-logo"> <path d="M89.333 19.068c-1.371 0-2.618-.334-3.739-1.001-1.12-.668-2.016-1.652-2.685-2.954-.669-1.303-1.004-2.898-1.004-4.786 0-1.871.327-3.475.98-4.81.668-1.334 1.605-2.351 2.81-3.051 1.204-.716 2.61-1.074 4.216-1.074 1.69 0 3.546.415 5.57 1.245l-.2 4.223h-1.832l-.502-2.587c-1.07-.375-2.05-.562-2.936-.562-1.54 0-2.727.553-3.563 1.66-.82 1.107-1.23 2.629-1.23 4.566 0 2.213.46 3.882 1.38 5.005.937 1.123 2.108 1.684 3.513 1.684.703 0 1.43-.138 2.184-.415.77-.293 1.53-.74 2.283-1.343l1.155 1.758c-1.021.83-2.083 1.449-3.188 1.856-1.087.39-2.158.586-3.212.586zM101.687 5.81h2.133c1.623 0 2.894.237 3.814.709.921.455 1.381 1.277 1.381 2.466 0 .878-.268 1.546-.803 2.002-.536.455-1.297.773-2.284.952 1.087.13 1.966.447 2.635.952.669.504 1.004 1.286 1.004 2.344 0 1.22-.494 2.124-1.481 2.71-.987.57-2.476.854-4.467.854h-6.725v-1.514l1.782-.463V7.837l-1.782-.44V5.885l4.793-.073zm1.506 1.93h-1.506v3.54h1.079c1.138 0 1.957-.147 2.459-.44.502-.293.753-.765.753-1.416 0-.635-.226-1.074-.677-1.318-.452-.245-1.155-.367-2.108-.367zm.05 9.082c1.104 0 1.907-.139 2.409-.415.519-.293.778-.806.778-1.539 0-.667-.218-1.171-.653-1.513-.435-.358-1.12-.537-2.057-.537h-2.033v4.004h1.556zm14.439.463V18.8h-6.55v-1.514l1.782-.463V7.837l-1.782-.44V5.885l4.793-.171v11.109l1.757.463zm-3.388-13.72c-.552 0-.995-.147-1.33-.44-.334-.31-.502-.749-.502-1.318 0-.603.176-1.05.527-1.343.352-.31.795-.464 1.33-.464.519 0 .945.155 1.28.464.351.293.527.732.527 1.318 0 .586-.176 1.034-.527 1.343-.351.293-.786.44-1.305.44zm6.915 15.235v-1.515l2.133-.439V7.984h-2.61l-.427 2.1h-1.857V5.81h12.799v4.272h-1.832l-.427-2.1h-2.635v8.863l2.184.44v1.513h-7.328zm11.029.219c-.602 0-1.263-.106-1.982-.317l.427-2.296c.284.05.56.074.828.074.87 0 1.514-.334 1.932-1.001.435-.684.728-1.668.878-2.954.151-1.286.243-2.857.276-4.712l-1.932-.489V5.811h12.221v1.513l-1.782.513v8.985l1.782.463V18.8h-6.55v-1.514l1.757-.463V7.984h-3.187c-.033 2.278-.184 4.248-.452 5.908-.267 1.644-.736 2.913-1.405 3.809-.669.878-1.606 1.318-2.811 1.318zm22.915-.049l-.376-2.075c-.669.732-1.397 1.277-2.183 1.636-.787.358-1.556.537-2.309.537-1.037 0-1.907-.318-2.61-.953-.686-.65-1.029-1.595-1.029-2.831 0-1.4.452-2.369 1.355-2.906.921-.553 2.192-.83 3.815-.83h2.66V9.961c0-.797-.209-1.367-.628-1.709-.418-.358-1.012-.537-1.781-.537-.669 0-1.431.122-2.284.366l-.276 1.807h-1.932l-.201-3.418c2.175-.619 4.007-.928 5.496-.928 1.472 0 2.61.317 3.413.952.803.619 1.204 1.595 1.204 2.93v7.349l1.782.488v1.514l-4.116.195zm-5.47-3.955c0 .667.159 1.155.477 1.465.317.293.727.44 1.229.44.452 0 .945-.131 1.481-.391a6.558 6.558 0 001.606-1.099v-2.197h-2.183c-.987 0-1.673.146-2.058.44-.368.292-.552.74-.552 1.342zm10.756 3.785v-1.515l1.757-.488V7.886l-1.757-.488V5.884l6.45-.171v1.514l-1.682.537v3.222h5.647V7.813l-1.682-.415V5.884l6.45-.171v1.514l-1.757.537v9.033l1.757.488V18.8h-6.45v-1.514l1.682-.439v-3.735h-5.647v3.735l1.682.44V18.8h-6.45zm25.445.17l-.376-2.075c-.669.732-1.397 1.277-2.183 1.636-.786.358-1.556.537-2.309.537-1.037 0-1.907-.318-2.61-.953-.686-.65-1.029-1.595-1.029-2.831 0-1.4.452-2.369 1.355-2.906.921-.553 2.192-.83 3.815-.83h2.66V9.961c0-.797-.209-1.367-.627-1.709-.419-.358-1.013-.537-1.782-.537-.669 0-1.431.122-2.284.366l-.276 1.807h-1.932l-.201-3.418c2.175-.619 4.007-.928 5.496-.928 1.472 0 2.61.317 3.413.952.803.619 1.204 1.595 1.204 2.93v7.349l1.782.488v1.514l-4.116.195zm-5.47-3.955c0 .667.159 1.155.477 1.465.318.293.727.44 1.229.44.452 0 .945-.131 1.481-.391a6.558 6.558 0 001.606-1.099v-2.197h-2.183c-.987 0-1.673.146-2.058.44-.368.292-.552.74-.552 1.342z" fill="#000D05"/> <path d="M0 19.139v-1.514l1.957-.512V4.1L0 3.636V2.122L5.044 2h12.422v1.514l-1.958.561v13.038l1.958.512v1.514h-7.002v-1.514l1.958-.512V4.173H5.044v12.94l1.957.512v1.514H0zM25.612 5.882c1.924 0 3.43.57 4.517 1.709 1.088 1.14 1.631 2.743 1.631 4.81 0 1.448-.267 2.693-.803 3.735a5.613 5.613 0 01-2.258 2.417c-.97.57-2.142.854-3.513.854-1.924 0-3.422-.561-4.492-1.684-1.054-1.123-1.581-2.734-1.581-4.834 0-2.165.569-3.874 1.706-5.127 1.155-1.253 2.752-1.88 4.793-1.88zm-.15 2.1c-2.142 0-3.212 1.586-3.212 4.76 0 1.563.259 2.718.777 3.467.52.733 1.289 1.099 2.31 1.099 1.103 0 1.931-.407 2.484-1.22.552-.815.828-1.995.828-3.54 0-3.045-1.063-4.566-3.187-4.566zm14.057 11.425c-1.138 0-2.158-.26-3.062-.78-.903-.522-1.614-1.278-2.133-2.271-.518-.993-.778-2.19-.778-3.59 0-1.252.184-2.31.553-3.173.368-.879.861-1.587 1.48-2.124a5.87 5.87 0 012.133-1.196 7.924 7.924 0 012.46-.391c.752 0 1.53.098 2.333.293.803.195 1.472.423 2.008.683l-.1 3.394h-1.958l-.326-1.977a5.726 5.726 0 00-.979-.22 6.46 6.46 0 00-.928-.073c-1.172 0-2.058.423-2.66 1.27-.586.83-.879 1.944-.879 3.344 0 1.514.318 2.67.954 3.467.652.781 1.506 1.172 2.56 1.172 1.12 0 2.375-.448 3.764-1.343l1.004 1.514c-.904.683-1.816 1.188-2.736 1.513a8.092 8.092 0 01-2.71.488zm6.573-.268v-1.514l1.757-.488V8.226l-1.757-.489V6.224l6.45-.171v1.513l-1.682.538v3.222h5.646V8.152l-1.681-.415V6.224l6.45-.171v1.513l-1.757.538v9.033l1.756.488v1.514h-6.45v-1.514l1.682-.44V13.45H50.86v3.736l1.681.44v1.513h-6.449zm25.445.171l-.376-2.075c-.67.732-1.397 1.277-2.183 1.635-.787.358-1.556.537-2.31.537-1.036 0-1.906-.317-2.609-.952-.686-.65-1.029-1.595-1.029-2.832 0-1.4.452-2.368 1.355-2.905.92-.553 2.192-.83 3.815-.83h2.66V10.3c0-.798-.21-1.367-.628-1.71-.418-.357-1.012-.536-1.781-.536-.67 0-1.43.122-2.284.366l-.276 1.807h-1.932l-.201-3.418c2.175-.619 4.007-.928 5.496-.928 1.472 0 2.61.317 3.412.952.803.619 1.205 1.595 1.205 2.93v7.349l1.782.488v1.514l-4.116.195zm-5.47-3.955c0 .667.159 1.155.476 1.465.318.293.728.44 1.23.44.452 0 .945-.131 1.48-.392a6.548 6.548 0 001.607-1.098v-2.197h-2.184c-.987 0-1.673.146-2.057.439-.368.293-.552.74-.552 1.343z" fill="#00B543"/> <path d="M1.626 28.68h3.15c1.418 0 2.46.24 3.125.721s.997 1.208.997 2.18c0 .664-.204 1.218-.612 1.662-.403.44-.995.721-1.775.847v.047c.916.136 1.589.426 2.018.87.435.44.652 1.053.652 1.843 0 1.055-.35 1.868-1.052 2.438-.702.57-1.697.855-2.985.855H1.626V28.68zm.8 5.104h2.53c1.078 0 1.861-.178 2.348-.533.492-.36.738-.923.738-1.686 0-.763-.277-1.317-.832-1.662-.55-.345-1.372-.517-2.466-.517H2.427v4.398zm0 .706v4.947H5.13c2.125 0 3.188-.862 3.188-2.587 0-1.574-1.12-2.36-3.361-2.36h-2.53zm9.826-2.87v6.163l-.047 1.607 5.066-7.77h1.036v8.522h-.746V34.02l.032-1.646-5.066 7.77h-1.013V31.62h.738zm13.556 0h.966l-3.825 4.124 4.1 4.398h-1.045l-4.037-4.32v4.32h-.793V31.62h.793v4.14l3.84-4.14zm8.655 8.522h-.77v-7.8h-3.024c-.157 2.064-.35 3.64-.58 4.727-.226 1.082-.52 1.88-.88 2.391-.357.507-.82.76-1.39.76-.205 0-.383-.02-.535-.062v-.705c.1.031.241.047.424.047.592 0 1.069-.622 1.43-1.866.366-1.25.644-3.254.832-6.014h4.493v8.522zm8.042 0l-.196-1.348h-.063c-.43.549-.872.938-1.328 1.168-.45.225-.984.337-1.602.337-.837 0-1.49-.214-1.955-.643-.466-.428-.7-1.021-.7-1.78 0-.83.346-1.476 1.037-1.936.697-.46 1.702-.703 3.016-.729l1.626-.047v-.565c0-.81-.165-1.421-.495-1.834-.33-.413-.861-.62-1.594-.62-.79 0-1.61.22-2.458.659l-.29-.674c.936-.44 1.863-.659 2.78-.659.937 0 1.636.243 2.096.73.466.485.7 1.243.7 2.273v5.669h-.574zm-3.142-.548c.912 0 1.629-.259 2.152-.776.53-.523.794-1.247.794-2.172v-.84l-1.493.064c-1.199.057-2.055.245-2.568.564-.508.314-.762.805-.762 1.474 0 .533.163.949.487 1.247.33.292.794.439 1.39.439zm13.454 3.442h-.77v-2.894h-6.534v2.894h-.77v-3.63h.566c.712-.999 1.262-2.157 1.65-3.474.387-1.317.59-2.754.612-4.312h4.107v7.786h1.14v3.63zm-1.916-3.63V32.34h-2.655c-.126 2.828-.811 5.183-2.058 7.065h4.713zm8.914.736l-.197-1.348h-.062c-.43.549-.872.938-1.328 1.168-.45.225-.984.337-1.602.337-.838 0-1.49-.214-1.955-.643-.466-.428-.7-1.021-.7-1.78 0-.83.346-1.476 1.037-1.936.697-.46 1.702-.703 3.016-.729l1.626-.047v-.565c0-.81-.165-1.421-.495-1.834-.33-.413-.861-.62-1.594-.62-.79 0-1.61.22-2.459.659l-.29-.674c.937-.44 1.864-.659 2.78-.659.937 0 1.636.243 2.097.73.466.485.7 1.243.7 2.273v5.669h-.574zm-3.142-.548c.911 0 1.629-.259 2.152-.776.53-.523.793-1.247.793-2.172v-.84l-1.492.064c-1.199.057-2.055.245-2.568.564-.508.314-.762.805-.762 1.474 0 .533.163.949.487 1.247.33.292.793.439 1.39.439zm7.116-7.974v2.854c0 .721.175 1.241.526 1.56.35.319.89.479 1.618.479.513 0 1.003-.092 1.469-.275.466-.183.95-.476 1.453-.878v-3.74h.777v8.522h-.777v-4.045c-.524.402-1.04.69-1.548.862a5.001 5.001 0 01-1.633.26c-.875 0-1.537-.228-1.987-.683-.445-.455-.668-1.11-.668-1.968V31.62h.77zm22.729 2.776c0 1.819-.456 3.258-1.367 4.32-.91 1.055-2.167 1.583-3.77 1.583-1.597 0-2.85-.528-3.761-1.583-.912-1.062-1.367-2.507-1.367-4.336 0-1.824.458-3.26 1.374-4.305.922-1.05 2.178-1.575 3.77-1.575 1.602 0 2.856.528 3.762 1.583.906 1.051 1.359 2.488 1.359 4.313zm-9.393 0c0 1.64.366 2.911 1.1 3.81.732.894 1.785 1.34 3.157 1.34 1.382 0 2.437-.444 3.165-1.332.733-.889 1.1-2.161 1.1-3.818 0-1.652-.367-2.917-1.1-3.795-.728-.883-1.778-1.325-3.15-1.325-1.366 0-2.421.444-3.165 1.333-.738.888-1.107 2.15-1.107 3.787zm13.94 1.364l-2.976-4.14h.895l2.545 3.591 2.52-3.59h.857l-2.93 4.139 3.142 4.383h-.903l-2.686-3.803-2.702 3.802h-.856l3.094-4.382zm12.975.11c0 1.39-.338 2.477-1.013 3.261-.676.779-1.608 1.168-2.796 1.168-.75 0-1.409-.18-1.98-.54-.57-.361-1.007-.879-1.311-1.553-.304-.674-.456-1.453-.456-2.336 0-1.39.338-2.473 1.014-3.246.675-.78 1.602-1.169 2.78-1.169 1.173 0 2.092.395 2.756 1.184.671.784 1.006 1.861 1.006 3.23zm-6.739 0c0 1.17.257 2.085.77 2.744.518.653 1.249.98 2.191.98.943 0 1.67-.327 2.183-.98.519-.659.778-1.574.778-2.744 0-1.176-.262-2.089-.785-2.737-.519-.648-1.249-.972-2.192-.972-.942 0-1.67.324-2.183.972-.508.643-.762 1.555-.762 2.737zm12.755 4.43c-1.314 0-2.273-.492-2.875-1.475h-.055l.024.659c.021.387.031.81.031 1.27V44h-.777V31.62h.66l.149 1.215h.047c.586-.92 1.524-1.38 2.812-1.38 1.151 0 2.028.38 2.631 1.137.607.753.911 1.85.911 3.293 0 1.401-.32 2.488-.959 3.262-.633.768-1.5 1.152-2.599 1.152zm-.016-.69c.875 0 1.55-.325 2.026-.973.482-.648.723-1.555.723-2.72 0-2.504-.906-3.756-2.717-3.756-.995 0-1.726.274-2.192.823-.466.544-.699 1.432-.699 2.666v.25c0 1.334.223 2.285.668 2.855.45.57 1.181.854 2.191.854zm13.006-3.74c0 1.39-.338 2.477-1.013 3.261-.676.779-1.608 1.168-2.796 1.168-.749 0-1.409-.18-1.979-.54-.571-.361-1.008-.879-1.312-1.553-.303-.674-.455-1.453-.455-2.336 0-1.39.337-2.473 1.013-3.246.675-.78 1.602-1.169 2.78-1.169 1.173 0 2.092.395 2.757 1.184.67.784 1.005 1.861 1.005 3.23zm-6.739 0c0 1.17.257 2.085.77 2.744.519.653 1.249.98 2.191.98.943 0 1.671-.327 2.184-.98.518-.659.777-1.574.777-2.744 0-1.176-.262-2.089-.785-2.737-.518-.648-1.249-.972-2.191-.972-.943 0-1.671.324-2.184.972-.508.643-.762 1.555-.762 2.737zm9.881-4.25v3.74h5.419v-3.74h.769v8.522h-.769v-4.108h-5.419v4.108h-.778V31.62h.778zm9.793 0v6.163l-.047 1.607L141 31.62h1.037v8.522h-.746V34.02l.031-1.646-5.066 7.77h-1.013V31.62h.738zm13.878 8.522h-.777V31.62h6.809v8.522h-.778v-7.785h-5.254v7.785zm12.55.158c-1.314 0-2.272-.492-2.874-1.475h-.055l.024.659c.021.387.031.81.031 1.27V44h-.778V31.62h.66l.149 1.215h.048c.586-.92 1.523-1.38 2.811-1.38 1.152 0 2.029.38 2.631 1.137.608.753.911 1.85.911 3.293 0 1.401-.319 2.488-.958 3.262-.633.768-1.5 1.152-2.6 1.152zm-.015-.69c.874 0 1.55-.325 2.026-.973.482-.648.723-1.555.723-2.72 0-2.504-.906-3.756-2.718-3.756-.995 0-1.725.274-2.191.823-.466.544-.699 1.432-.699 2.666v.25c0 1.334.223 2.285.668 2.855.45.57 1.18.854 2.191.854zm11.129.532l-.197-1.348h-.063c-.429.549-.871.938-1.327 1.168-.45.225-.984.337-1.602.337-.838 0-1.49-.214-1.956-.643-.466-.428-.699-1.021-.699-1.78 0-.83.346-1.476 1.037-1.936.696-.46 1.702-.703 3.016-.729l1.626-.047v-.565c0-.81-.165-1.421-.495-1.834-.33-.413-.861-.62-1.594-.62-.791 0-1.61.22-2.459.659l-.29-.674c.937-.44 1.864-.659 2.78-.659.937 0 1.636.243 2.097.73.466.485.699 1.243.699 2.273v5.669h-.573zm-3.142-.548c.911 0 1.628-.259 2.152-.776.529-.523.793-1.247.793-2.172v-.84l-1.492.064c-1.199.057-2.055.245-2.568.564-.508.314-.762.805-.762 1.474 0 .533.162.949.487 1.247.33.292.793.439 1.39.439zm14.278 3.442h-.777v-2.894h-7.014V31.62h.778v7.786h5.097V31.62h.77v7.786h1.146v3.63zm2.6-2.894h-.778V31.62h.778v8.522zm-.887-10.89c0-.502.164-.752.494-.752a.43.43 0 01.377.196c.095.13.142.316.142.556 0 .236-.047.421-.142.557a.425.425 0 01-.377.204c-.33 0-.494-.254-.494-.76z" fill="#656565"/> </symbol> <symbol id="symbol-arrow"> <path d="M.5 10.5l5-5-5-5" stroke-width="1.3"/> </symbol> <symbol id="symbol-arrow"> <path d="M.5 10.5l5-5-5-5" stroke-width="1.3"/> </symbol> <symbol id="symbol-pdf"> <path d="M29.9919 13.7113C29.9881 13.6544 29.9775 13.6 29.9587 13.5462C29.9519 13.5262 29.9469 13.5069 29.9381 13.4875C29.9081 13.4225 29.87 13.3612 29.8175 13.3094C29.8169 13.3088 29.8169 13.3088 29.8169 13.3088L26.25 9.74125V6.25C26.25 6.23625 26.2431 6.22438 26.2419 6.21063C26.2381 6.15563 26.2275 6.1025 26.21 6.05C26.2031 6.03 26.1981 6.01063 26.1888 5.99125C26.1581 5.925 26.12 5.86188 26.0662 5.80813L20.4412 0.183125C20.3875 0.129375 20.3244 0.090625 20.2575 0.06C20.2387 0.051875 20.22 0.04625 20.2012 0.04C20.1475 0.02125 20.0925 0.010625 20.0362 0.006875C20.0237 0.00625 20.0125 0 20 0H4.375C4.03 0 3.75 0.28 3.75 0.625V9.74125L0.183125 13.3081C0.183125 13.3081 0.1825 13.3088 0.181875 13.3094C0.129375 13.3619 0.091875 13.4231 0.061875 13.4875C0.053125 13.5069 0.048125 13.5262 0.04125 13.5462C0.0225 13.6 0.01125 13.6544 0.008125 13.7113C0.006875 13.725 0 13.7362 0 13.75V25.625C0 25.97 0.28 26.25 0.625 26.25H3.75V29.375C3.75 29.72 4.03 30 4.375 30H25.625C25.97 30 26.25 29.72 26.25 29.375V26.25H29.375C29.72 26.25 30 25.97 30 25.625V13.75C30 13.7362 29.9931 13.725 29.9919 13.7113ZM27.8662 13.125H26.25V11.5087L27.8662 13.125ZM24.1162 5.625H20.625V2.13375L24.1162 5.625ZM5 1.25H19.375V6.25C19.375 6.595 19.655 6.875 20 6.875H25V10V13.125H5V10V1.25ZM3.75 11.5087V13.125H2.13375L3.75 11.5087ZM25 28.75H5V26.25H25V28.75ZM28.75 25H1.25V14.375H4.375H25.625H28.75V25Z"/> <path d="M11.4088 16.7C11.2069 16.5269 10.9788 16.4044 10.7231 16.3338C10.4681 16.2632 10.22 16.2275 9.97938 16.2275H7.89688V23.75H9.15063V20.7325H10.0431C10.305 20.7325 10.56 20.6863 10.8081 20.5944C11.0563 20.5025 11.2756 20.3607 11.4669 20.1694C11.6581 19.9782 11.8119 19.7394 11.9294 19.4519C12.0463 19.165 12.105 18.8307 12.105 18.4482C12.105 18.0232 12.0394 17.6688 11.9081 17.3857C11.7769 17.1025 11.6106 16.8738 11.4088 16.7ZM10.6069 19.3782C10.4156 19.5869 10.1713 19.6913 9.87376 19.6913H9.15126V17.3007H9.87376C10.1713 17.3007 10.4156 17.3925 10.6069 17.5769C10.7981 17.7613 10.8938 18.055 10.8938 18.4588C10.8938 18.8625 10.7981 19.1688 10.6069 19.3782Z"/> <path d="M19.2019 23.75H20.4875V20.52H22.4107V19.4257H20.4775V17.375H22.57V16.2275H19.2019V23.75Z"/> <path d="M15.0475 16.2275H13.1562V23.75H15.0368C16.0075 23.75 16.7425 23.4225 17.2418 22.7675C17.7412 22.1119 17.9906 21.1894 17.9906 19.9994C17.9906 18.8094 17.7412 17.8832 17.2418 17.2207C16.7425 16.5588 16.0112 16.2275 15.0475 16.2275ZM16.5937 21.1519C16.5125 21.4819 16.3968 21.7563 16.2487 21.9757C16.1 22.195 15.9231 22.36 15.7175 22.4694C15.5118 22.5794 15.2887 22.6344 15.0481 22.6344H14.4425V17.3432H15.0481C15.2887 17.3432 15.5118 17.3982 15.7175 17.5082C15.9231 17.6175 16.1 17.7825 16.2487 18.0019C16.3975 18.2213 16.5125 18.4975 16.5937 18.8307C16.675 19.1638 16.7162 19.5532 16.7162 19.9994C16.7162 20.4388 16.675 20.8225 16.5937 21.1519Z"/> </symbol> <symbol id="symbol-download"> <path d="M25.3846 18.75V22.7885H4.61538V18.75H0V27.4038H30V18.75H25.3846ZM28.8462 26.25H1.15385V19.9038H3.46154V23.9423H26.5385V19.9038H28.8462V26.25Z"/> <path d="M14.6514 19.407C14.764 19.5197 14.9117 19.576 15.0592 19.576C15.2068 19.576 15.3545 19.5197 15.4671 19.407L19.2869 15.5872C19.5122 15.3619 19.5122 14.9967 19.2869 14.7714C19.0616 14.5461 18.6964 14.5461 18.4712 14.7714L15.577 17.6654V2.59619H14.4232V17.5472L11.529 14.653C11.3038 14.4277 10.9386 14.4277 10.7133 14.653C10.488 14.8783 10.488 15.2435 10.7133 15.4688L14.6514 19.407ZM15.0999 18.1427L15.0594 18.1832L15.0189 18.1427H15.0999Z"/> </symbol> <symbol id="symbol-doc"> <path d="M29.9925 13.7125C29.9887 13.6556 29.9781 13.6006 29.9587 13.5462C29.9519 13.5262 29.9469 13.5069 29.9381 13.4875C29.9081 13.4231 29.8706 13.3631 29.8187 13.3106C29.8181 13.3094 29.8175 13.3088 29.8162 13.3075L26.25 9.74125V6.25C26.25 6.23688 26.2431 6.225 26.2425 6.21187C26.2387 6.15625 26.2281 6.1025 26.21 6.05C26.2031 6.03 26.1981 6.01125 26.1894 5.99187C26.1588 5.92562 26.1206 5.8625 26.0669 5.80875L20.4419 0.18375C20.3888 0.130625 20.3256 0.0925 20.26 0.061875C20.24 0.0525 20.2194 0.046875 20.1981 0.04C20.1475 0.023125 20.0956 0.0125 20.0425 0.00875C20.0275 0.0075 20.0144 0 20 0H4.375C4.02938 0 3.75 0.28 3.75 0.625V9.74125L0.18375 13.3075C0.1825 13.3088 0.1825 13.3094 0.18125 13.3106C0.129375 13.3625 0.091875 13.4231 0.061875 13.4875C0.053125 13.5063 0.048125 13.5262 0.04125 13.5462C0.0225 13.6 0.01125 13.655 0.0075 13.7125C0.006875 13.7256 0 13.7369 0 13.75V25.625C0 25.97 0.279375 26.25 0.625 26.25H3.75V29.375C3.75 29.72 4.02938 30 4.375 30H25.625C25.9706 30 26.25 29.72 26.25 29.375V26.25H29.375C29.7206 26.25 30 25.97 30 25.625V13.75C30 13.7369 29.9931 13.7256 29.9925 13.7125ZM27.8662 13.125H26.25V11.5087L27.8662 13.125ZM24.1162 5.625H20.625V2.13375L24.1162 5.625ZM5 1.25H19.375V6.25C19.375 6.595 19.6544 6.875 20 6.875H25V10V13.125H5V10V1.25ZM3.75 11.5087V13.125H2.13375L3.75 11.5087ZM25 28.75H5V26.25H25V28.75ZM28.75 25H1.25V14.375H4.375H25.625H28.75V25Z"/> <path d="M8.85878 16.2275H6.96753V23.75H8.84815C9.81878 23.75 10.5538 23.4225 11.0532 22.7669C11.5525 22.1119 11.8019 21.1894 11.8019 19.9994C11.8019 18.8094 11.5525 17.8832 11.0532 17.2207C10.5532 16.5588 9.8219 16.2275 8.85878 16.2275ZM10.4044 21.1519C10.3232 21.4819 10.2075 21.7563 10.0588 21.9757C9.91003 22.195 9.73315 22.36 9.52753 22.4694C9.3219 22.5794 9.09878 22.6344 8.85815 22.6344H8.25253V17.3432H8.85815C9.09878 17.3432 9.3219 17.3982 9.52753 17.5075C9.73315 17.6175 9.91003 17.7825 10.0588 18.0019C10.2075 18.2213 10.3225 18.4975 10.4044 18.8307C10.4857 19.1638 10.5263 19.5532 10.5263 19.9994C10.5269 20.4388 10.4863 20.8225 10.4044 21.1519Z"/> <path d="M20.6631 18.0338C20.7906 17.7856 20.95 17.5894 21.1412 17.4438C21.3325 17.2988 21.5556 17.2263 21.8106 17.2263C22.2712 17.2263 22.6462 17.435 22.9369 17.8531L23.67 16.9606C23.4644 16.6631 23.1987 16.435 22.8731 16.275C22.5475 16.1156 22.1681 16.0363 21.7362 16.0363C21.3181 16.0363 20.9375 16.1338 20.5944 16.3281C20.2506 16.5231 19.9587 16.7956 19.7175 17.1463C19.4769 17.4975 19.2906 17.915 19.16 18.4C19.0287 18.8856 18.9631 19.415 18.9631 19.9888C18.9631 20.5625 19.0287 21.09 19.16 21.5719C19.2912 22.0538 19.475 22.4694 19.7125 22.82C19.95 23.1713 20.24 23.4456 20.5837 23.6438C20.9275 23.8419 21.3119 23.9413 21.7369 23.9413C22.2044 23.9413 22.5919 23.8494 22.9 23.665C23.2081 23.4806 23.4612 23.24 23.6594 22.9425L22.9262 22.0819C22.8056 22.2663 22.6556 22.4219 22.475 22.5494C22.2944 22.6769 22.08 22.7406 21.8325 22.7406C21.5706 22.7406 21.3419 22.6681 21.1469 22.5225C20.9519 22.3775 20.7912 22.1813 20.6637 21.9331C20.5362 21.685 20.4406 21.3931 20.3769 21.0563C20.3131 20.72 20.2812 20.3644 20.2812 19.9888C20.2812 19.6063 20.3131 19.2469 20.3769 18.91C20.44 18.5738 20.5356 18.2819 20.6631 18.0338Z"/> <path d="M17.38 17.12C17.1463 16.7731 16.8613 16.5056 16.525 16.3175C16.1888 16.13 15.8113 16.0363 15.3938 16.0363C14.9688 16.0363 14.5882 16.13 14.2519 16.3175C13.9157 16.5056 13.6307 16.7731 13.3969 17.12C13.1632 17.4669 12.9863 17.8813 12.8657 18.3631C12.745 18.845 12.685 19.3831 12.685 19.9781C12.685 20.5731 12.7469 21.1131 12.8713 21.5981C12.995 22.0838 13.1744 22.5 13.4075 22.8469C13.6413 23.1938 13.9244 23.4631 14.2575 23.6544C14.5907 23.8456 14.9694 23.9413 15.3944 23.9413C15.8125 23.9413 16.1894 23.8456 16.5257 23.6544C16.8619 23.4631 17.1469 23.1938 17.3807 22.8469C17.6144 22.5 17.7932 22.0838 17.9169 21.5981C18.0407 21.1131 18.1032 20.5731 18.1032 19.9781C18.1032 19.3831 18.0413 18.845 17.9169 18.3631C17.7925 17.8813 17.6138 17.4669 17.38 17.12ZM16.7 21.0563C16.6432 21.3931 16.5569 21.685 16.44 21.9331C16.3232 22.1813 16.1782 22.3756 16.0044 22.5175C15.8307 22.6594 15.6269 22.73 15.3932 22.73C15.1594 22.73 14.9557 22.6594 14.7819 22.5175C14.6082 22.3756 14.4632 22.1813 14.3463 21.9331C14.2294 21.685 14.1425 21.3931 14.0857 21.0563C14.0288 20.72 14.0007 20.3606 14.0007 19.9781C14.0007 19.5956 14.0288 19.2363 14.0857 18.8994C14.1425 18.5631 14.2288 18.2731 14.3463 18.0281C14.4632 17.7838 14.6082 17.5913 14.7819 17.4494C14.9557 17.3075 15.1594 17.2369 15.3932 17.2369C15.62 17.2369 15.82 17.3075 15.9932 17.4494C16.1669 17.5913 16.3119 17.7838 16.4288 18.0281C16.5457 18.2731 16.6344 18.5631 16.6944 18.8994C16.7544 19.2363 16.785 19.5956 16.785 19.9781C16.785 20.3606 16.7569 20.72 16.7 21.0563Z"/> </symbol> </symbol><symbol id="symbols"><title>symbol</title><symbol id="symbols-symbol"> <symbol id="symbols-symbol-logo"> <path d="M89.333 19.068c-1.371 0-2.618-.334-3.739-1.001-1.12-.668-2.016-1.652-2.685-2.954-.669-1.303-1.004-2.898-1.004-4.786 0-1.871.327-3.475.98-4.81.668-1.334 1.605-2.351 2.81-3.051 1.204-.716 2.61-1.074 4.216-1.074 1.69 0 3.546.415 5.57 1.245l-.2 4.223h-1.832l-.502-2.587c-1.07-.375-2.05-.562-2.936-.562-1.54 0-2.727.553-3.563 1.66-.82 1.107-1.23 2.629-1.23 4.566 0 2.213.46 3.882 1.38 5.005.937 1.123 2.108 1.684 3.513 1.684.703 0 1.43-.138 2.184-.415.77-.293 1.53-.74 2.283-1.343l1.155 1.758c-1.021.83-2.083 1.449-3.188 1.856-1.087.39-2.158.586-3.212.586zM101.687 5.81h2.133c1.623 0 2.894.237 3.814.709.921.455 1.381 1.277 1.381 2.466 0 .878-.268 1.546-.803 2.002-.536.455-1.297.773-2.284.952 1.087.13 1.966.447 2.635.952.669.504 1.004 1.286 1.004 2.344 0 1.22-.494 2.124-1.481 2.71-.987.57-2.476.854-4.467.854h-6.725v-1.514l1.782-.463V7.837l-1.782-.44V5.885l4.793-.073zm1.506 1.93h-1.506v3.54h1.079c1.138 0 1.957-.147 2.459-.44.502-.293.753-.765.753-1.416 0-.635-.226-1.074-.677-1.318-.452-.245-1.155-.367-2.108-.367zm.05 9.082c1.104 0 1.907-.139 2.409-.415.519-.293.778-.806.778-1.539 0-.667-.218-1.171-.653-1.513-.435-.358-1.12-.537-2.057-.537h-2.033v4.004h1.556zm14.439.463V18.8h-6.55v-1.514l1.782-.463V7.837l-1.782-.44V5.885l4.793-.171v11.109l1.757.463zm-3.388-13.72c-.552 0-.995-.147-1.33-.44-.334-.31-.502-.749-.502-1.318 0-.603.176-1.05.527-1.343.352-.31.795-.464 1.33-.464.519 0 .945.155 1.28.464.351.293.527.732.527 1.318 0 .586-.176 1.034-.527 1.343-.351.293-.786.44-1.305.44zm6.915 15.235v-1.515l2.133-.439V7.984h-2.61l-.427 2.1h-1.857V5.81h12.799v4.272h-1.832l-.427-2.1h-2.635v8.863l2.184.44v1.513h-7.328zm11.029.219c-.602 0-1.263-.106-1.982-.317l.427-2.296c.284.05.56.074.828.074.87 0 1.514-.334 1.932-1.001.435-.684.728-1.668.878-2.954.151-1.286.243-2.857.276-4.712l-1.932-.489V5.811h12.221v1.513l-1.782.513v8.985l1.782.463V18.8h-6.55v-1.514l1.757-.463V7.984h-3.187c-.033 2.278-.184 4.248-.452 5.908-.267 1.644-.736 2.913-1.405 3.809-.669.878-1.606 1.318-2.811 1.318zm22.915-.049l-.376-2.075c-.669.732-1.397 1.277-2.183 1.636-.787.358-1.556.537-2.309.537-1.037 0-1.907-.318-2.61-.953-.686-.65-1.029-1.595-1.029-2.831 0-1.4.452-2.369 1.355-2.906.921-.553 2.192-.83 3.815-.83h2.66V9.961c0-.797-.209-1.367-.628-1.709-.418-.358-1.012-.537-1.781-.537-.669 0-1.431.122-2.284.366l-.276 1.807h-1.932l-.201-3.418c2.175-.619 4.007-.928 5.496-.928 1.472 0 2.61.317 3.413.952.803.619 1.204 1.595 1.204 2.93v7.349l1.782.488v1.514l-4.116.195zm-5.47-3.955c0 .667.159 1.155.477 1.465.317.293.727.44 1.229.44.452 0 .945-.131 1.481-.391a6.558 6.558 0 001.606-1.099v-2.197h-2.183c-.987 0-1.673.146-2.058.44-.368.292-.552.74-.552 1.342zm10.756 3.785v-1.515l1.757-.488V7.886l-1.757-.488V5.884l6.45-.171v1.514l-1.682.537v3.222h5.647V7.813l-1.682-.415V5.884l6.45-.171v1.514l-1.757.537v9.033l1.757.488V18.8h-6.45v-1.514l1.682-.439v-3.735h-5.647v3.735l1.682.44V18.8h-6.45zm25.445.17l-.376-2.075c-.669.732-1.397 1.277-2.183 1.636-.786.358-1.556.537-2.309.537-1.037 0-1.907-.318-2.61-.953-.686-.65-1.029-1.595-1.029-2.831 0-1.4.452-2.369 1.355-2.906.921-.553 2.192-.83 3.815-.83h2.66V9.961c0-.797-.209-1.367-.627-1.709-.419-.358-1.013-.537-1.782-.537-.669 0-1.431.122-2.284.366l-.276 1.807h-1.932l-.201-3.418c2.175-.619 4.007-.928 5.496-.928 1.472 0 2.61.317 3.413.952.803.619 1.204 1.595 1.204 2.93v7.349l1.782.488v1.514l-4.116.195zm-5.47-3.955c0 .667.159 1.155.477 1.465.318.293.727.44 1.229.44.452 0 .945-.131 1.481-.391a6.558 6.558 0 001.606-1.099v-2.197h-2.183c-.987 0-1.673.146-2.058.44-.368.292-.552.74-.552 1.342z" fill="#000D05"/> <path d="M0 19.139v-1.514l1.957-.512V4.1L0 3.636V2.122L5.044 2h12.422v1.514l-1.958.561v13.038l1.958.512v1.514h-7.002v-1.514l1.958-.512V4.173H5.044v12.94l1.957.512v1.514H0zM25.612 5.882c1.924 0 3.43.57 4.517 1.709 1.088 1.14 1.631 2.743 1.631 4.81 0 1.448-.267 2.693-.803 3.735a5.613 5.613 0 01-2.258 2.417c-.97.57-2.142.854-3.513.854-1.924 0-3.422-.561-4.492-1.684-1.054-1.123-1.581-2.734-1.581-4.834 0-2.165.569-3.874 1.706-5.127 1.155-1.253 2.752-1.88 4.793-1.88zm-.15 2.1c-2.142 0-3.212 1.586-3.212 4.76 0 1.563.259 2.718.777 3.467.52.733 1.289 1.099 2.31 1.099 1.103 0 1.931-.407 2.484-1.22.552-.815.828-1.995.828-3.54 0-3.045-1.063-4.566-3.187-4.566zm14.057 11.425c-1.138 0-2.158-.26-3.062-.78-.903-.522-1.614-1.278-2.133-2.271-.518-.993-.778-2.19-.778-3.59 0-1.252.184-2.31.553-3.173.368-.879.861-1.587 1.48-2.124a5.87 5.87 0 012.133-1.196 7.924 7.924 0 012.46-.391c.752 0 1.53.098 2.333.293.803.195 1.472.423 2.008.683l-.1 3.394h-1.958l-.326-1.977a5.726 5.726 0 00-.979-.22 6.46 6.46 0 00-.928-.073c-1.172 0-2.058.423-2.66 1.27-.586.83-.879 1.944-.879 3.344 0 1.514.318 2.67.954 3.467.652.781 1.506 1.172 2.56 1.172 1.12 0 2.375-.448 3.764-1.343l1.004 1.514c-.904.683-1.816 1.188-2.736 1.513a8.092 8.092 0 01-2.71.488zm6.573-.268v-1.514l1.757-.488V8.226l-1.757-.489V6.224l6.45-.171v1.513l-1.682.538v3.222h5.646V8.152l-1.681-.415V6.224l6.45-.171v1.513l-1.757.538v9.033l1.756.488v1.514h-6.45v-1.514l1.682-.44V13.45H50.86v3.736l1.681.44v1.513h-6.449zm25.445.171l-.376-2.075c-.67.732-1.397 1.277-2.183 1.635-.787.358-1.556.537-2.31.537-1.036 0-1.906-.317-2.609-.952-.686-.65-1.029-1.595-1.029-2.832 0-1.4.452-2.368 1.355-2.905.92-.553 2.192-.83 3.815-.83h2.66V10.3c0-.798-.21-1.367-.628-1.71-.418-.357-1.012-.536-1.781-.536-.67 0-1.43.122-2.284.366l-.276 1.807h-1.932l-.201-3.418c2.175-.619 4.007-.928 5.496-.928 1.472 0 2.61.317 3.412.952.803.619 1.205 1.595 1.205 2.93v7.349l1.782.488v1.514l-4.116.195zm-5.47-3.955c0 .667.159 1.155.476 1.465.318.293.728.44 1.23.44.452 0 .945-.131 1.48-.392a6.548 6.548 0 001.607-1.098v-2.197h-2.184c-.987 0-1.673.146-2.057.439-.368.293-.552.74-.552 1.343z" fill="#00B543"/> <path d="M1.626 28.68h3.15c1.418 0 2.46.24 3.125.721s.997 1.208.997 2.18c0 .664-.204 1.218-.612 1.662-.403.44-.995.721-1.775.847v.047c.916.136 1.589.426 2.018.87.435.44.652 1.053.652 1.843 0 1.055-.35 1.868-1.052 2.438-.702.57-1.697.855-2.985.855H1.626V28.68zm.8 5.104h2.53c1.078 0 1.861-.178 2.348-.533.492-.36.738-.923.738-1.686 0-.763-.277-1.317-.832-1.662-.55-.345-1.372-.517-2.466-.517H2.427v4.398zm0 .706v4.947H5.13c2.125 0 3.188-.862 3.188-2.587 0-1.574-1.12-2.36-3.361-2.36h-2.53zm9.826-2.87v6.163l-.047 1.607 5.066-7.77h1.036v8.522h-.746V34.02l.032-1.646-5.066 7.77h-1.013V31.62h.738zm13.556 0h.966l-3.825 4.124 4.1 4.398h-1.045l-4.037-4.32v4.32h-.793V31.62h.793v4.14l3.84-4.14zm8.655 8.522h-.77v-7.8h-3.024c-.157 2.064-.35 3.64-.58 4.727-.226 1.082-.52 1.88-.88 2.391-.357.507-.82.76-1.39.76-.205 0-.383-.02-.535-.062v-.705c.1.031.241.047.424.047.592 0 1.069-.622 1.43-1.866.366-1.25.644-3.254.832-6.014h4.493v8.522zm8.042 0l-.196-1.348h-.063c-.43.549-.872.938-1.328 1.168-.45.225-.984.337-1.602.337-.837 0-1.49-.214-1.955-.643-.466-.428-.7-1.021-.7-1.78 0-.83.346-1.476 1.037-1.936.697-.46 1.702-.703 3.016-.729l1.626-.047v-.565c0-.81-.165-1.421-.495-1.834-.33-.413-.861-.62-1.594-.62-.79 0-1.61.22-2.458.659l-.29-.674c.936-.44 1.863-.659 2.78-.659.937 0 1.636.243 2.096.73.466.485.7 1.243.7 2.273v5.669h-.574zm-3.142-.548c.912 0 1.629-.259 2.152-.776.53-.523.794-1.247.794-2.172v-.84l-1.493.064c-1.199.057-2.055.245-2.568.564-.508.314-.762.805-.762 1.474 0 .533.163.949.487 1.247.33.292.794.439 1.39.439zm13.454 3.442h-.77v-2.894h-6.534v2.894h-.77v-3.63h.566c.712-.999 1.262-2.157 1.65-3.474.387-1.317.59-2.754.612-4.312h4.107v7.786h1.14v3.63zm-1.916-3.63V32.34h-2.655c-.126 2.828-.811 5.183-2.058 7.065h4.713zm8.914.736l-.197-1.348h-.062c-.43.549-.872.938-1.328 1.168-.45.225-.984.337-1.602.337-.838 0-1.49-.214-1.955-.643-.466-.428-.7-1.021-.7-1.78 0-.83.346-1.476 1.037-1.936.697-.46 1.702-.703 3.016-.729l1.626-.047v-.565c0-.81-.165-1.421-.495-1.834-.33-.413-.861-.62-1.594-.62-.79 0-1.61.22-2.459.659l-.29-.674c.937-.44 1.864-.659 2.78-.659.937 0 1.636.243 2.097.73.466.485.7 1.243.7 2.273v5.669h-.574zm-3.142-.548c.911 0 1.629-.259 2.152-.776.53-.523.793-1.247.793-2.172v-.84l-1.492.064c-1.199.057-2.055.245-2.568.564-.508.314-.762.805-.762 1.474 0 .533.163.949.487 1.247.33.292.793.439 1.39.439zm7.116-7.974v2.854c0 .721.175 1.241.526 1.56.35.319.89.479 1.618.479.513 0 1.003-.092 1.469-.275.466-.183.95-.476 1.453-.878v-3.74h.777v8.522h-.777v-4.045c-.524.402-1.04.69-1.548.862a5.001 5.001 0 01-1.633.26c-.875 0-1.537-.228-1.987-.683-.445-.455-.668-1.11-.668-1.968V31.62h.77zm22.729 2.776c0 1.819-.456 3.258-1.367 4.32-.91 1.055-2.167 1.583-3.77 1.583-1.597 0-2.85-.528-3.761-1.583-.912-1.062-1.367-2.507-1.367-4.336 0-1.824.458-3.26 1.374-4.305.922-1.05 2.178-1.575 3.77-1.575 1.602 0 2.856.528 3.762 1.583.906 1.051 1.359 2.488 1.359 4.313zm-9.393 0c0 1.64.366 2.911 1.1 3.81.732.894 1.785 1.34 3.157 1.34 1.382 0 2.437-.444 3.165-1.332.733-.889 1.1-2.161 1.1-3.818 0-1.652-.367-2.917-1.1-3.795-.728-.883-1.778-1.325-3.15-1.325-1.366 0-2.421.444-3.165 1.333-.738.888-1.107 2.15-1.107 3.787zm13.94 1.364l-2.976-4.14h.895l2.545 3.591 2.52-3.59h.857l-2.93 4.139 3.142 4.383h-.903l-2.686-3.803-2.702 3.802h-.856l3.094-4.382zm12.975.11c0 1.39-.338 2.477-1.013 3.261-.676.779-1.608 1.168-2.796 1.168-.75 0-1.409-.18-1.98-.54-.57-.361-1.007-.879-1.311-1.553-.304-.674-.456-1.453-.456-2.336 0-1.39.338-2.473 1.014-3.246.675-.78 1.602-1.169 2.78-1.169 1.173 0 2.092.395 2.756 1.184.671.784 1.006 1.861 1.006 3.23zm-6.739 0c0 1.17.257 2.085.77 2.744.518.653 1.249.98 2.191.98.943 0 1.67-.327 2.183-.98.519-.659.778-1.574.778-2.744 0-1.176-.262-2.089-.785-2.737-.519-.648-1.249-.972-2.192-.972-.942 0-1.67.324-2.183.972-.508.643-.762 1.555-.762 2.737zm12.755 4.43c-1.314 0-2.273-.492-2.875-1.475h-.055l.024.659c.021.387.031.81.031 1.27V44h-.777V31.62h.66l.149 1.215h.047c.586-.92 1.524-1.38 2.812-1.38 1.151 0 2.028.38 2.631 1.137.607.753.911 1.85.911 3.293 0 1.401-.32 2.488-.959 3.262-.633.768-1.5 1.152-2.599 1.152zm-.016-.69c.875 0 1.55-.325 2.026-.973.482-.648.723-1.555.723-2.72 0-2.504-.906-3.756-2.717-3.756-.995 0-1.726.274-2.192.823-.466.544-.699 1.432-.699 2.666v.25c0 1.334.223 2.285.668 2.855.45.57 1.181.854 2.191.854zm13.006-3.74c0 1.39-.338 2.477-1.013 3.261-.676.779-1.608 1.168-2.796 1.168-.749 0-1.409-.18-1.979-.54-.571-.361-1.008-.879-1.312-1.553-.303-.674-.455-1.453-.455-2.336 0-1.39.337-2.473 1.013-3.246.675-.78 1.602-1.169 2.78-1.169 1.173 0 2.092.395 2.757 1.184.67.784 1.005 1.861 1.005 3.23zm-6.739 0c0 1.17.257 2.085.77 2.744.519.653 1.249.98 2.191.98.943 0 1.671-.327 2.184-.98.518-.659.777-1.574.777-2.744 0-1.176-.262-2.089-.785-2.737-.518-.648-1.249-.972-2.191-.972-.943 0-1.671.324-2.184.972-.508.643-.762 1.555-.762 2.737zm9.881-4.25v3.74h5.419v-3.74h.769v8.522h-.769v-4.108h-5.419v4.108h-.778V31.62h.778zm9.793 0v6.163l-.047 1.607L141 31.62h1.037v8.522h-.746V34.02l.031-1.646-5.066 7.77h-1.013V31.62h.738zm13.878 8.522h-.777V31.62h6.809v8.522h-.778v-7.785h-5.254v7.785zm12.55.158c-1.314 0-2.272-.492-2.874-1.475h-.055l.024.659c.021.387.031.81.031 1.27V44h-.778V31.62h.66l.149 1.215h.048c.586-.92 1.523-1.38 2.811-1.38 1.152 0 2.029.38 2.631 1.137.608.753.911 1.85.911 3.293 0 1.401-.319 2.488-.958 3.262-.633.768-1.5 1.152-2.6 1.152zm-.015-.69c.874 0 1.55-.325 2.026-.973.482-.648.723-1.555.723-2.72 0-2.504-.906-3.756-2.718-3.756-.995 0-1.725.274-2.191.823-.466.544-.699 1.432-.699 2.666v.25c0 1.334.223 2.285.668 2.855.45.57 1.18.854 2.191.854zm11.129.532l-.197-1.348h-.063c-.429.549-.871.938-1.327 1.168-.45.225-.984.337-1.602.337-.838 0-1.49-.214-1.956-.643-.466-.428-.699-1.021-.699-1.78 0-.83.346-1.476 1.037-1.936.696-.46 1.702-.703 3.016-.729l1.626-.047v-.565c0-.81-.165-1.421-.495-1.834-.33-.413-.861-.62-1.594-.62-.791 0-1.61.22-2.459.659l-.29-.674c.937-.44 1.864-.659 2.78-.659.937 0 1.636.243 2.097.73.466.485.699 1.243.699 2.273v5.669h-.573zm-3.142-.548c.911 0 1.628-.259 2.152-.776.529-.523.793-1.247.793-2.172v-.84l-1.492.064c-1.199.057-2.055.245-2.568.564-.508.314-.762.805-.762 1.474 0 .533.162.949.487 1.247.33.292.793.439 1.39.439zm14.278 3.442h-.777v-2.894h-7.014V31.62h.778v7.786h5.097V31.62h.77v7.786h1.146v3.63zm2.6-2.894h-.778V31.62h.778v8.522zm-.887-10.89c0-.502.164-.752.494-.752a.43.43 0 01.377.196c.095.13.142.316.142.556 0 .236-.047.421-.142.557a.425.425 0 01-.377.204c-.33 0-.494-.254-.494-.76z" fill="#656565"/> </symbol> <symbol id="symbols-symbol-arrow"> <path d="M.5 10.5l5-5-5-5" stroke-width="1.3"/> </symbol> </symbol><symbol id="symbols-symbols"><symbol id="symbols-symbols-symbol"> <symbol id="symbols-symbols-symbol-logo"> <path d="M89.333 19.068c-1.371 0-2.618-.334-3.739-1.001-1.12-.668-2.016-1.652-2.685-2.954-.669-1.303-1.004-2.898-1.004-4.786 0-1.871.327-3.475.98-4.81.668-1.334 1.605-2.351 2.81-3.051 1.204-.716 2.61-1.074 4.216-1.074 1.69 0 3.546.415 5.57 1.245l-.2 4.223h-1.832l-.502-2.587c-1.07-.375-2.05-.562-2.936-.562-1.54 0-2.727.553-3.563 1.66-.82 1.107-1.23 2.629-1.23 4.566 0 2.213.46 3.882 1.38 5.005.937 1.123 2.108 1.684 3.513 1.684.703 0 1.43-.138 2.184-.415.77-.293 1.53-.74 2.283-1.343l1.155 1.758c-1.021.83-2.083 1.449-3.188 1.856-1.087.39-2.158.586-3.212.586zM101.687 5.81h2.133c1.623 0 2.894.237 3.814.709.921.455 1.381 1.277 1.381 2.466 0 .878-.268 1.546-.803 2.002-.536.455-1.297.773-2.284.952 1.087.13 1.966.447 2.635.952.669.504 1.004 1.286 1.004 2.344 0 1.22-.494 2.124-1.481 2.71-.987.57-2.476.854-4.467.854h-6.725v-1.514l1.782-.463V7.837l-1.782-.44V5.885l4.793-.073zm1.506 1.93h-1.506v3.54h1.079c1.138 0 1.957-.147 2.459-.44.502-.293.753-.765.753-1.416 0-.635-.226-1.074-.677-1.318-.452-.245-1.155-.367-2.108-.367zm.05 9.082c1.104 0 1.907-.139 2.409-.415.519-.293.778-.806.778-1.539 0-.667-.218-1.171-.653-1.513-.435-.358-1.12-.537-2.057-.537h-2.033v4.004h1.556zm14.439.463V18.8h-6.55v-1.514l1.782-.463V7.837l-1.782-.44V5.885l4.793-.171v11.109l1.757.463zm-3.388-13.72c-.552 0-.995-.147-1.33-.44-.334-.31-.502-.749-.502-1.318 0-.603.176-1.05.527-1.343.352-.31.795-.464 1.33-.464.519 0 .945.155 1.28.464.351.293.527.732.527 1.318 0 .586-.176 1.034-.527 1.343-.351.293-.786.44-1.305.44zm6.915 15.235v-1.515l2.133-.439V7.984h-2.61l-.427 2.1h-1.857V5.81h12.799v4.272h-1.832l-.427-2.1h-2.635v8.863l2.184.44v1.513h-7.328zm11.029.219c-.602 0-1.263-.106-1.982-.317l.427-2.296c.284.05.56.074.828.074.87 0 1.514-.334 1.932-1.001.435-.684.728-1.668.878-2.954.151-1.286.243-2.857.276-4.712l-1.932-.489V5.811h12.221v1.513l-1.782.513v8.985l1.782.463V18.8h-6.55v-1.514l1.757-.463V7.984h-3.187c-.033 2.278-.184 4.248-.452 5.908-.267 1.644-.736 2.913-1.405 3.809-.669.878-1.606 1.318-2.811 1.318zm22.915-.049l-.376-2.075c-.669.732-1.397 1.277-2.183 1.636-.787.358-1.556.537-2.309.537-1.037 0-1.907-.318-2.61-.953-.686-.65-1.029-1.595-1.029-2.831 0-1.4.452-2.369 1.355-2.906.921-.553 2.192-.83 3.815-.83h2.66V9.961c0-.797-.209-1.367-.628-1.709-.418-.358-1.012-.537-1.781-.537-.669 0-1.431.122-2.284.366l-.276 1.807h-1.932l-.201-3.418c2.175-.619 4.007-.928 5.496-.928 1.472 0 2.61.317 3.413.952.803.619 1.204 1.595 1.204 2.93v7.349l1.782.488v1.514l-4.116.195zm-5.47-3.955c0 .667.159 1.155.477 1.465.317.293.727.44 1.229.44.452 0 .945-.131 1.481-.391a6.558 6.558 0 001.606-1.099v-2.197h-2.183c-.987 0-1.673.146-2.058.44-.368.292-.552.74-.552 1.342zm10.756 3.785v-1.515l1.757-.488V7.886l-1.757-.488V5.884l6.45-.171v1.514l-1.682.537v3.222h5.647V7.813l-1.682-.415V5.884l6.45-.171v1.514l-1.757.537v9.033l1.757.488V18.8h-6.45v-1.514l1.682-.439v-3.735h-5.647v3.735l1.682.44V18.8h-6.45zm25.445.17l-.376-2.075c-.669.732-1.397 1.277-2.183 1.636-.786.358-1.556.537-2.309.537-1.037 0-1.907-.318-2.61-.953-.686-.65-1.029-1.595-1.029-2.831 0-1.4.452-2.369 1.355-2.906.921-.553 2.192-.83 3.815-.83h2.66V9.961c0-.797-.209-1.367-.627-1.709-.419-.358-1.013-.537-1.782-.537-.669 0-1.431.122-2.284.366l-.276 1.807h-1.932l-.201-3.418c2.175-.619 4.007-.928 5.496-.928 1.472 0 2.61.317 3.413.952.803.619 1.204 1.595 1.204 2.93v7.349l1.782.488v1.514l-4.116.195zm-5.47-3.955c0 .667.159 1.155.477 1.465.318.293.727.44 1.229.44.452 0 .945-.131 1.481-.391a6.558 6.558 0 001.606-1.099v-2.197h-2.183c-.987 0-1.673.146-2.058.44-.368.292-.552.74-.552 1.342z" fill="#000D05"/> <path d="M0 19.139v-1.514l1.957-.512V4.1L0 3.636V2.122L5.044 2h12.422v1.514l-1.958.561v13.038l1.958.512v1.514h-7.002v-1.514l1.958-.512V4.173H5.044v12.94l1.957.512v1.514H0zM25.612 5.882c1.924 0 3.43.57 4.517 1.709 1.088 1.14 1.631 2.743 1.631 4.81 0 1.448-.267 2.693-.803 3.735a5.613 5.613 0 01-2.258 2.417c-.97.57-2.142.854-3.513.854-1.924 0-3.422-.561-4.492-1.684-1.054-1.123-1.581-2.734-1.581-4.834 0-2.165.569-3.874 1.706-5.127 1.155-1.253 2.752-1.88 4.793-1.88zm-.15 2.1c-2.142 0-3.212 1.586-3.212 4.76 0 1.563.259 2.718.777 3.467.52.733 1.289 1.099 2.31 1.099 1.103 0 1.931-.407 2.484-1.22.552-.815.828-1.995.828-3.54 0-3.045-1.063-4.566-3.187-4.566zm14.057 11.425c-1.138 0-2.158-.26-3.062-.78-.903-.522-1.614-1.278-2.133-2.271-.518-.993-.778-2.19-.778-3.59 0-1.252.184-2.31.553-3.173.368-.879.861-1.587 1.48-2.124a5.87 5.87 0 012.133-1.196 7.924 7.924 0 012.46-.391c.752 0 1.53.098 2.333.293.803.195 1.472.423 2.008.683l-.1 3.394h-1.958l-.326-1.977a5.726 5.726 0 00-.979-.22 6.46 6.46 0 00-.928-.073c-1.172 0-2.058.423-2.66 1.27-.586.83-.879 1.944-.879 3.344 0 1.514.318 2.67.954 3.467.652.781 1.506 1.172 2.56 1.172 1.12 0 2.375-.448 3.764-1.343l1.004 1.514c-.904.683-1.816 1.188-2.736 1.513a8.092 8.092 0 01-2.71.488zm6.573-.268v-1.514l1.757-.488V8.226l-1.757-.489V6.224l6.45-.171v1.513l-1.682.538v3.222h5.646V8.152l-1.681-.415V6.224l6.45-.171v1.513l-1.757.538v9.033l1.756.488v1.514h-6.45v-1.514l1.682-.44V13.45H50.86v3.736l1.681.44v1.513h-6.449zm25.445.171l-.376-2.075c-.67.732-1.397 1.277-2.183 1.635-.787.358-1.556.537-2.31.537-1.036 0-1.906-.317-2.609-.952-.686-.65-1.029-1.595-1.029-2.832 0-1.4.452-2.368 1.355-2.905.92-.553 2.192-.83 3.815-.83h2.66V10.3c0-.798-.21-1.367-.628-1.71-.418-.357-1.012-.536-1.781-.536-.67 0-1.43.122-2.284.366l-.276 1.807h-1.932l-.201-3.418c2.175-.619 4.007-.928 5.496-.928 1.472 0 2.61.317 3.412.952.803.619 1.205 1.595 1.205 2.93v7.349l1.782.488v1.514l-4.116.195zm-5.47-3.955c0 .667.159 1.155.476 1.465.318.293.728.44 1.23.44.452 0 .945-.131 1.48-.392a6.548 6.548 0 001.607-1.098v-2.197h-2.184c-.987 0-1.673.146-2.057.439-.368.293-.552.74-.552 1.343z" fill="#00B543"/> <path d="M1.626 28.68h3.15c1.418 0 2.46.24 3.125.721s.997 1.208.997 2.18c0 .664-.204 1.218-.612 1.662-.403.44-.995.721-1.775.847v.047c.916.136 1.589.426 2.018.87.435.44.652 1.053.652 1.843 0 1.055-.35 1.868-1.052 2.438-.702.57-1.697.855-2.985.855H1.626V28.68zm.8 5.104h2.53c1.078 0 1.861-.178 2.348-.533.492-.36.738-.923.738-1.686 0-.763-.277-1.317-.832-1.662-.55-.345-1.372-.517-2.466-.517H2.427v4.398zm0 .706v4.947H5.13c2.125 0 3.188-.862 3.188-2.587 0-1.574-1.12-2.36-3.361-2.36h-2.53zm9.826-2.87v6.163l-.047 1.607 5.066-7.77h1.036v8.522h-.746V34.02l.032-1.646-5.066 7.77h-1.013V31.62h.738zm13.556 0h.966l-3.825 4.124 4.1 4.398h-1.045l-4.037-4.32v4.32h-.793V31.62h.793v4.14l3.84-4.14zm8.655 8.522h-.77v-7.8h-3.024c-.157 2.064-.35 3.64-.58 4.727-.226 1.082-.52 1.88-.88 2.391-.357.507-.82.76-1.39.76-.205 0-.383-.02-.535-.062v-.705c.1.031.241.047.424.047.592 0 1.069-.622 1.43-1.866.366-1.25.644-3.254.832-6.014h4.493v8.522zm8.042 0l-.196-1.348h-.063c-.43.549-.872.938-1.328 1.168-.45.225-.984.337-1.602.337-.837 0-1.49-.214-1.955-.643-.466-.428-.7-1.021-.7-1.78 0-.83.346-1.476 1.037-1.936.697-.46 1.702-.703 3.016-.729l1.626-.047v-.565c0-.81-.165-1.421-.495-1.834-.33-.413-.861-.62-1.594-.62-.79 0-1.61.22-2.458.659l-.29-.674c.936-.44 1.863-.659 2.78-.659.937 0 1.636.243 2.096.73.466.485.7 1.243.7 2.273v5.669h-.574zm-3.142-.548c.912 0 1.629-.259 2.152-.776.53-.523.794-1.247.794-2.172v-.84l-1.493.064c-1.199.057-2.055.245-2.568.564-.508.314-.762.805-.762 1.474 0 .533.163.949.487 1.247.33.292.794.439 1.39.439zm13.454 3.442h-.77v-2.894h-6.534v2.894h-.77v-3.63h.566c.712-.999 1.262-2.157 1.65-3.474.387-1.317.59-2.754.612-4.312h4.107v7.786h1.14v3.63zm-1.916-3.63V32.34h-2.655c-.126 2.828-.811 5.183-2.058 7.065h4.713zm8.914.736l-.197-1.348h-.062c-.43.549-.872.938-1.328 1.168-.45.225-.984.337-1.602.337-.838 0-1.49-.214-1.955-.643-.466-.428-.7-1.021-.7-1.78 0-.83.346-1.476 1.037-1.936.697-.46 1.702-.703 3.016-.729l1.626-.047v-.565c0-.81-.165-1.421-.495-1.834-.33-.413-.861-.62-1.594-.62-.79 0-1.61.22-2.459.659l-.29-.674c.937-.44 1.864-.659 2.78-.659.937 0 1.636.243 2.097.73.466.485.7 1.243.7 2.273v5.669h-.574zm-3.142-.548c.911 0 1.629-.259 2.152-.776.53-.523.793-1.247.793-2.172v-.84l-1.492.064c-1.199.057-2.055.245-2.568.564-.508.314-.762.805-.762 1.474 0 .533.163.949.487 1.247.33.292.793.439 1.39.439zm7.116-7.974v2.854c0 .721.175 1.241.526 1.56.35.319.89.479 1.618.479.513 0 1.003-.092 1.469-.275.466-.183.95-.476 1.453-.878v-3.74h.777v8.522h-.777v-4.045c-.524.402-1.04.69-1.548.862a5.001 5.001 0 01-1.633.26c-.875 0-1.537-.228-1.987-.683-.445-.455-.668-1.11-.668-1.968V31.62h.77zm22.729 2.776c0 1.819-.456 3.258-1.367 4.32-.91 1.055-2.167 1.583-3.77 1.583-1.597 0-2.85-.528-3.761-1.583-.912-1.062-1.367-2.507-1.367-4.336 0-1.824.458-3.26 1.374-4.305.922-1.05 2.178-1.575 3.77-1.575 1.602 0 2.856.528 3.762 1.583.906 1.051 1.359 2.488 1.359 4.313zm-9.393 0c0 1.64.366 2.911 1.1 3.81.732.894 1.785 1.34 3.157 1.34 1.382 0 2.437-.444 3.165-1.332.733-.889 1.1-2.161 1.1-3.818 0-1.652-.367-2.917-1.1-3.795-.728-.883-1.778-1.325-3.15-1.325-1.366 0-2.421.444-3.165 1.333-.738.888-1.107 2.15-1.107 3.787zm13.94 1.364l-2.976-4.14h.895l2.545 3.591 2.52-3.59h.857l-2.93 4.139 3.142 4.383h-.903l-2.686-3.803-2.702 3.802h-.856l3.094-4.382zm12.975.11c0 1.39-.338 2.477-1.013 3.261-.676.779-1.608 1.168-2.796 1.168-.75 0-1.409-.18-1.98-.54-.57-.361-1.007-.879-1.311-1.553-.304-.674-.456-1.453-.456-2.336 0-1.39.338-2.473 1.014-3.246.675-.78 1.602-1.169 2.78-1.169 1.173 0 2.092.395 2.756 1.184.671.784 1.006 1.861 1.006 3.23zm-6.739 0c0 1.17.257 2.085.77 2.744.518.653 1.249.98 2.191.98.943 0 1.67-.327 2.183-.98.519-.659.778-1.574.778-2.744 0-1.176-.262-2.089-.785-2.737-.519-.648-1.249-.972-2.192-.972-.942 0-1.67.324-2.183.972-.508.643-.762 1.555-.762 2.737zm12.755 4.43c-1.314 0-2.273-.492-2.875-1.475h-.055l.024.659c.021.387.031.81.031 1.27V44h-.777V31.62h.66l.149 1.215h.047c.586-.92 1.524-1.38 2.812-1.38 1.151 0 2.028.38 2.631 1.137.607.753.911 1.85.911 3.293 0 1.401-.32 2.488-.959 3.262-.633.768-1.5 1.152-2.599 1.152zm-.016-.69c.875 0 1.55-.325 2.026-.973.482-.648.723-1.555.723-2.72 0-2.504-.906-3.756-2.717-3.756-.995 0-1.726.274-2.192.823-.466.544-.699 1.432-.699 2.666v.25c0 1.334.223 2.285.668 2.855.45.57 1.181.854 2.191.854zm13.006-3.74c0 1.39-.338 2.477-1.013 3.261-.676.779-1.608 1.168-2.796 1.168-.749 0-1.409-.18-1.979-.54-.571-.361-1.008-.879-1.312-1.553-.303-.674-.455-1.453-.455-2.336 0-1.39.337-2.473 1.013-3.246.675-.78 1.602-1.169 2.78-1.169 1.173 0 2.092.395 2.757 1.184.67.784 1.005 1.861 1.005 3.23zm-6.739 0c0 1.17.257 2.085.77 2.744.519.653 1.249.98 2.191.98.943 0 1.671-.327 2.184-.98.518-.659.777-1.574.777-2.744 0-1.176-.262-2.089-.785-2.737-.518-.648-1.249-.972-2.191-.972-.943 0-1.671.324-2.184.972-.508.643-.762 1.555-.762 2.737zm9.881-4.25v3.74h5.419v-3.74h.769v8.522h-.769v-4.108h-5.419v4.108h-.778V31.62h.778zm9.793 0v6.163l-.047 1.607L141 31.62h1.037v8.522h-.746V34.02l.031-1.646-5.066 7.77h-1.013V31.62h.738zm13.878 8.522h-.777V31.62h6.809v8.522h-.778v-7.785h-5.254v7.785zm12.55.158c-1.314 0-2.272-.492-2.874-1.475h-.055l.024.659c.021.387.031.81.031 1.27V44h-.778V31.62h.66l.149 1.215h.048c.586-.92 1.523-1.38 2.811-1.38 1.152 0 2.029.38 2.631 1.137.608.753.911 1.85.911 3.293 0 1.401-.319 2.488-.958 3.262-.633.768-1.5 1.152-2.6 1.152zm-.015-.69c.874 0 1.55-.325 2.026-.973.482-.648.723-1.555.723-2.72 0-2.504-.906-3.756-2.718-3.756-.995 0-1.725.274-2.191.823-.466.544-.699 1.432-.699 2.666v.25c0 1.334.223 2.285.668 2.855.45.57 1.18.854 2.191.854zm11.129.532l-.197-1.348h-.063c-.429.549-.871.938-1.327 1.168-.45.225-.984.337-1.602.337-.838 0-1.49-.214-1.956-.643-.466-.428-.699-1.021-.699-1.78 0-.83.346-1.476 1.037-1.936.696-.46 1.702-.703 3.016-.729l1.626-.047v-.565c0-.81-.165-1.421-.495-1.834-.33-.413-.861-.62-1.594-.62-.791 0-1.61.22-2.459.659l-.29-.674c.937-.44 1.864-.659 2.78-.659.937 0 1.636.243 2.097.73.466.485.699 1.243.699 2.273v5.669h-.573zm-3.142-.548c.911 0 1.628-.259 2.152-.776.529-.523.793-1.247.793-2.172v-.84l-1.492.064c-1.199.057-2.055.245-2.568.564-.508.314-.762.805-.762 1.474 0 .533.162.949.487 1.247.33.292.793.439 1.39.439zm14.278 3.442h-.777v-2.894h-7.014V31.62h.778v7.786h5.097V31.62h.77v7.786h1.146v3.63zm2.6-2.894h-.778V31.62h.778v8.522zm-.887-10.89c0-.502.164-.752.494-.752a.43.43 0 01.377.196c.095.13.142.316.142.556 0 .236-.047.421-.142.557a.425.425 0 01-.377.204c-.33 0-.494-.254-.494-.76z" fill="#656565"/> </symbol> <symbol id="symbols-symbols-symbol-arrow"> <path d="M.5 10.5l5-5-5-5" stroke="currentColor" stroke-width="1.3"/> </symbol> </symbol><symbol id="symbols-symbols-symbols"><symbol id="symbols-symbols-symbols-symbol"> <symbol id="symbols-symbols-symbols-symbol-logo"> <path d="M89.333 19.068c-1.371 0-2.618-.334-3.739-1.001-1.12-.668-2.016-1.652-2.685-2.954-.669-1.303-1.004-2.898-1.004-4.786 0-1.871.327-3.475.98-4.81.668-1.334 1.605-2.351 2.81-3.051 1.204-.716 2.61-1.074 4.216-1.074 1.69 0 3.546.415 5.57 1.245l-.2 4.223h-1.832l-.502-2.587c-1.07-.375-2.05-.562-2.936-.562-1.54 0-2.727.553-3.563 1.66-.82 1.107-1.23 2.629-1.23 4.566 0 2.213.46 3.882 1.38 5.005.937 1.123 2.108 1.684 3.513 1.684.703 0 1.43-.138 2.184-.415.77-.293 1.53-.74 2.283-1.343l1.155 1.758c-1.021.83-2.083 1.449-3.188 1.856-1.087.39-2.158.586-3.212.586zM101.687 5.81h2.133c1.623 0 2.894.237 3.814.709.921.455 1.381 1.277 1.381 2.466 0 .878-.268 1.546-.803 2.002-.536.455-1.297.773-2.284.952 1.087.13 1.966.447 2.635.952.669.504 1.004 1.286 1.004 2.344 0 1.22-.494 2.124-1.481 2.71-.987.57-2.476.854-4.467.854h-6.725v-1.514l1.782-.463V7.837l-1.782-.44V5.885l4.793-.073zm1.506 1.93h-1.506v3.54h1.079c1.138 0 1.957-.147 2.459-.44.502-.293.753-.765.753-1.416 0-.635-.226-1.074-.677-1.318-.452-.245-1.155-.367-2.108-.367zm.05 9.082c1.104 0 1.907-.139 2.409-.415.519-.293.778-.806.778-1.539 0-.667-.218-1.171-.653-1.513-.435-.358-1.12-.537-2.057-.537h-2.033v4.004h1.556zm14.439.463V18.8h-6.55v-1.514l1.782-.463V7.837l-1.782-.44V5.885l4.793-.171v11.109l1.757.463zm-3.388-13.72c-.552 0-.995-.147-1.33-.44-.334-.31-.502-.749-.502-1.318 0-.603.176-1.05.527-1.343.352-.31.795-.464 1.33-.464.519 0 .945.155 1.28.464.351.293.527.732.527 1.318 0 .586-.176 1.034-.527 1.343-.351.293-.786.44-1.305.44zm6.915 15.235v-1.515l2.133-.439V7.984h-2.61l-.427 2.1h-1.857V5.81h12.799v4.272h-1.832l-.427-2.1h-2.635v8.863l2.184.44v1.513h-7.328zm11.029.219c-.602 0-1.263-.106-1.982-.317l.427-2.296c.284.05.56.074.828.074.87 0 1.514-.334 1.932-1.001.435-.684.728-1.668.878-2.954.151-1.286.243-2.857.276-4.712l-1.932-.489V5.811h12.221v1.513l-1.782.513v8.985l1.782.463V18.8h-6.55v-1.514l1.757-.463V7.984h-3.187c-.033 2.278-.184 4.248-.452 5.908-.267 1.644-.736 2.913-1.405 3.809-.669.878-1.606 1.318-2.811 1.318zm22.915-.049l-.376-2.075c-.669.732-1.397 1.277-2.183 1.636-.787.358-1.556.537-2.309.537-1.037 0-1.907-.318-2.61-.953-.686-.65-1.029-1.595-1.029-2.831 0-1.4.452-2.369 1.355-2.906.921-.553 2.192-.83 3.815-.83h2.66V9.961c0-.797-.209-1.367-.628-1.709-.418-.358-1.012-.537-1.781-.537-.669 0-1.431.122-2.284.366l-.276 1.807h-1.932l-.201-3.418c2.175-.619 4.007-.928 5.496-.928 1.472 0 2.61.317 3.413.952.803.619 1.204 1.595 1.204 2.93v7.349l1.782.488v1.514l-4.116.195zm-5.47-3.955c0 .667.159 1.155.477 1.465.317.293.727.44 1.229.44.452 0 .945-.131 1.481-.391a6.558 6.558 0 001.606-1.099v-2.197h-2.183c-.987 0-1.673.146-2.058.44-.368.292-.552.74-.552 1.342zm10.756 3.785v-1.515l1.757-.488V7.886l-1.757-.488V5.884l6.45-.171v1.514l-1.682.537v3.222h5.647V7.813l-1.682-.415V5.884l6.45-.171v1.514l-1.757.537v9.033l1.757.488V18.8h-6.45v-1.514l1.682-.439v-3.735h-5.647v3.735l1.682.44V18.8h-6.45zm25.445.17l-.376-2.075c-.669.732-1.397 1.277-2.183 1.636-.786.358-1.556.537-2.309.537-1.037 0-1.907-.318-2.61-.953-.686-.65-1.029-1.595-1.029-2.831 0-1.4.452-2.369 1.355-2.906.921-.553 2.192-.83 3.815-.83h2.66V9.961c0-.797-.209-1.367-.627-1.709-.419-.358-1.013-.537-1.782-.537-.669 0-1.431.122-2.284.366l-.276 1.807h-1.932l-.201-3.418c2.175-.619 4.007-.928 5.496-.928 1.472 0 2.61.317 3.413.952.803.619 1.204 1.595 1.204 2.93v7.349l1.782.488v1.514l-4.116.195zm-5.47-3.955c0 .667.159 1.155.477 1.465.318.293.727.44 1.229.44.452 0 .945-.131 1.481-.391a6.558 6.558 0 001.606-1.099v-2.197h-2.183c-.987 0-1.673.146-2.058.44-.368.292-.552.74-.552 1.342z" fill="#000D05"/> <path d="M0 19.139v-1.514l1.957-.512V4.1L0 3.636V2.122L5.044 2h12.422v1.514l-1.958.561v13.038l1.958.512v1.514h-7.002v-1.514l1.958-.512V4.173H5.044v12.94l1.957.512v1.514H0zM25.612 5.882c1.924 0 3.43.57 4.517 1.709 1.088 1.14 1.631 2.743 1.631 4.81 0 1.448-.267 2.693-.803 3.735a5.613 5.613 0 01-2.258 2.417c-.97.57-2.142.854-3.513.854-1.924 0-3.422-.561-4.492-1.684-1.054-1.123-1.581-2.734-1.581-4.834 0-2.165.569-3.874 1.706-5.127 1.155-1.253 2.752-1.88 4.793-1.88zm-.15 2.1c-2.142 0-3.212 1.586-3.212 4.76 0 1.563.259 2.718.777 3.467.52.733 1.289 1.099 2.31 1.099 1.103 0 1.931-.407 2.484-1.22.552-.815.828-1.995.828-3.54 0-3.045-1.063-4.566-3.187-4.566zm14.057 11.425c-1.138 0-2.158-.26-3.062-.78-.903-.522-1.614-1.278-2.133-2.271-.518-.993-.778-2.19-.778-3.59 0-1.252.184-2.31.553-3.173.368-.879.861-1.587 1.48-2.124a5.87 5.87 0 012.133-1.196 7.924 7.924 0 012.46-.391c.752 0 1.53.098 2.333.293.803.195 1.472.423 2.008.683l-.1 3.394h-1.958l-.326-1.977a5.726 5.726 0 00-.979-.22 6.46 6.46 0 00-.928-.073c-1.172 0-2.058.423-2.66 1.27-.586.83-.879 1.944-.879 3.344 0 1.514.318 2.67.954 3.467.652.781 1.506 1.172 2.56 1.172 1.12 0 2.375-.448 3.764-1.343l1.004 1.514c-.904.683-1.816 1.188-2.736 1.513a8.092 8.092 0 01-2.71.488zm6.573-.268v-1.514l1.757-.488V8.226l-1.757-.489V6.224l6.45-.171v1.513l-1.682.538v3.222h5.646V8.152l-1.681-.415V6.224l6.45-.171v1.513l-1.757.538v9.033l1.756.488v1.514h-6.45v-1.514l1.682-.44V13.45H50.86v3.736l1.681.44v1.513h-6.449zm25.445.171l-.376-2.075c-.67.732-1.397 1.277-2.183 1.635-.787.358-1.556.537-2.31.537-1.036 0-1.906-.317-2.609-.952-.686-.65-1.029-1.595-1.029-2.832 0-1.4.452-2.368 1.355-2.905.92-.553 2.192-.83 3.815-.83h2.66V10.3c0-.798-.21-1.367-.628-1.71-.418-.357-1.012-.536-1.781-.536-.67 0-1.43.122-2.284.366l-.276 1.807h-1.932l-.201-3.418c2.175-.619 4.007-.928 5.496-.928 1.472 0 2.61.317 3.412.952.803.619 1.205 1.595 1.205 2.93v7.349l1.782.488v1.514l-4.116.195zm-5.47-3.955c0 .667.159 1.155.476 1.465.318.293.728.44 1.23.44.452 0 .945-.131 1.48-.392a6.548 6.548 0 001.607-1.098v-2.197h-2.184c-.987 0-1.673.146-2.057.439-.368.293-.552.74-.552 1.343z" fill="#00B543"/> <path d="M1.626 28.68h3.15c1.418 0 2.46.24 3.125.721s.997 1.208.997 2.18c0 .664-.204 1.218-.612 1.662-.403.44-.995.721-1.775.847v.047c.916.136 1.589.426 2.018.87.435.44.652 1.053.652 1.843 0 1.055-.35 1.868-1.052 2.438-.702.57-1.697.855-2.985.855H1.626V28.68zm.8 5.104h2.53c1.078 0 1.861-.178 2.348-.533.492-.36.738-.923.738-1.686 0-.763-.277-1.317-.832-1.662-.55-.345-1.372-.517-2.466-.517H2.427v4.398zm0 .706v4.947H5.13c2.125 0 3.188-.862 3.188-2.587 0-1.574-1.12-2.36-3.361-2.36h-2.53zm9.826-2.87v6.163l-.047 1.607 5.066-7.77h1.036v8.522h-.746V34.02l.032-1.646-5.066 7.77h-1.013V31.62h.738zm13.556 0h.966l-3.825 4.124 4.1 4.398h-1.045l-4.037-4.32v4.32h-.793V31.62h.793v4.14l3.84-4.14zm8.655 8.522h-.77v-7.8h-3.024c-.157 2.064-.35 3.64-.58 4.727-.226 1.082-.52 1.88-.88 2.391-.357.507-.82.76-1.39.76-.205 0-.383-.02-.535-.062v-.705c.1.031.241.047.424.047.592 0 1.069-.622 1.43-1.866.366-1.25.644-3.254.832-6.014h4.493v8.522zm8.042 0l-.196-1.348h-.063c-.43.549-.872.938-1.328 1.168-.45.225-.984.337-1.602.337-.837 0-1.49-.214-1.955-.643-.466-.428-.7-1.021-.7-1.78 0-.83.346-1.476 1.037-1.936.697-.46 1.702-.703 3.016-.729l1.626-.047v-.565c0-.81-.165-1.421-.495-1.834-.33-.413-.861-.62-1.594-.62-.79 0-1.61.22-2.458.659l-.29-.674c.936-.44 1.863-.659 2.78-.659.937 0 1.636.243 2.096.73.466.485.7 1.243.7 2.273v5.669h-.574zm-3.142-.548c.912 0 1.629-.259 2.152-.776.53-.523.794-1.247.794-2.172v-.84l-1.493.064c-1.199.057-2.055.245-2.568.564-.508.314-.762.805-.762 1.474 0 .533.163.949.487 1.247.33.292.794.439 1.39.439zm13.454 3.442h-.77v-2.894h-6.534v2.894h-.77v-3.63h.566c.712-.999 1.262-2.157 1.65-3.474.387-1.317.59-2.754.612-4.312h4.107v7.786h1.14v3.63zm-1.916-3.63V32.34h-2.655c-.126 2.828-.811 5.183-2.058 7.065h4.713zm8.914.736l-.197-1.348h-.062c-.43.549-.872.938-1.328 1.168-.45.225-.984.337-1.602.337-.838 0-1.49-.214-1.955-.643-.466-.428-.7-1.021-.7-1.78 0-.83.346-1.476 1.037-1.936.697-.46 1.702-.703 3.016-.729l1.626-.047v-.565c0-.81-.165-1.421-.495-1.834-.33-.413-.861-.62-1.594-.62-.79 0-1.61.22-2.459.659l-.29-.674c.937-.44 1.864-.659 2.78-.659.937 0 1.636.243 2.097.73.466.485.7 1.243.7 2.273v5.669h-.574zm-3.142-.548c.911 0 1.629-.259 2.152-.776.53-.523.793-1.247.793-2.172v-.84l-1.492.064c-1.199.057-2.055.245-2.568.564-.508.314-.762.805-.762 1.474 0 .533.163.949.487 1.247.33.292.793.439 1.39.439zm7.116-7.974v2.854c0 .721.175 1.241.526 1.56.35.319.89.479 1.618.479.513 0 1.003-.092 1.469-.275.466-.183.95-.476 1.453-.878v-3.74h.777v8.522h-.777v-4.045c-.524.402-1.04.69-1.548.862a5.001 5.001 0 01-1.633.26c-.875 0-1.537-.228-1.987-.683-.445-.455-.668-1.11-.668-1.968V31.62h.77zm22.729 2.776c0 1.819-.456 3.258-1.367 4.32-.91 1.055-2.167 1.583-3.77 1.583-1.597 0-2.85-.528-3.761-1.583-.912-1.062-1.367-2.507-1.367-4.336 0-1.824.458-3.26 1.374-4.305.922-1.05 2.178-1.575 3.77-1.575 1.602 0 2.856.528 3.762 1.583.906 1.051 1.359 2.488 1.359 4.313zm-9.393 0c0 1.64.366 2.911 1.1 3.81.732.894 1.785 1.34 3.157 1.34 1.382 0 2.437-.444 3.165-1.332.733-.889 1.1-2.161 1.1-3.818 0-1.652-.367-2.917-1.1-3.795-.728-.883-1.778-1.325-3.15-1.325-1.366 0-2.421.444-3.165 1.333-.738.888-1.107 2.15-1.107 3.787zm13.94 1.364l-2.976-4.14h.895l2.545 3.591 2.52-3.59h.857l-2.93 4.139 3.142 4.383h-.903l-2.686-3.803-2.702 3.802h-.856l3.094-4.382zm12.975.11c0 1.39-.338 2.477-1.013 3.261-.676.779-1.608 1.168-2.796 1.168-.75 0-1.409-.18-1.98-.54-.57-.361-1.007-.879-1.311-1.553-.304-.674-.456-1.453-.456-2.336 0-1.39.338-2.473 1.014-3.246.675-.78 1.602-1.169 2.78-1.169 1.173 0 2.092.395 2.756 1.184.671.784 1.006 1.861 1.006 3.23zm-6.739 0c0 1.17.257 2.085.77 2.744.518.653 1.249.98 2.191.98.943 0 1.67-.327 2.183-.98.519-.659.778-1.574.778-2.744 0-1.176-.262-2.089-.785-2.737-.519-.648-1.249-.972-2.192-.972-.942 0-1.67.324-2.183.972-.508.643-.762 1.555-.762 2.737zm12.755 4.43c-1.314 0-2.273-.492-2.875-1.475h-.055l.024.659c.021.387.031.81.031 1.27V44h-.777V31.62h.66l.149 1.215h.047c.586-.92 1.524-1.38 2.812-1.38 1.151 0 2.028.38 2.631 1.137.607.753.911 1.85.911 3.293 0 1.401-.32 2.488-.959 3.262-.633.768-1.5 1.152-2.599 1.152zm-.016-.69c.875 0 1.55-.325 2.026-.973.482-.648.723-1.555.723-2.72 0-2.504-.906-3.756-2.717-3.756-.995 0-1.726.274-2.192.823-.466.544-.699 1.432-.699 2.666v.25c0 1.334.223 2.285.668 2.855.45.57 1.181.854 2.191.854zm13.006-3.74c0 1.39-.338 2.477-1.013 3.261-.676.779-1.608 1.168-2.796 1.168-.749 0-1.409-.18-1.979-.54-.571-.361-1.008-.879-1.312-1.553-.303-.674-.455-1.453-.455-2.336 0-1.39.337-2.473 1.013-3.246.675-.78 1.602-1.169 2.78-1.169 1.173 0 2.092.395 2.757 1.184.67.784 1.005 1.861 1.005 3.23zm-6.739 0c0 1.17.257 2.085.77 2.744.519.653 1.249.98 2.191.98.943 0 1.671-.327 2.184-.98.518-.659.777-1.574.777-2.744 0-1.176-.262-2.089-.785-2.737-.518-.648-1.249-.972-2.191-.972-.943 0-1.671.324-2.184.972-.508.643-.762 1.555-.762 2.737zm9.881-4.25v3.74h5.419v-3.74h.769v8.522h-.769v-4.108h-5.419v4.108h-.778V31.62h.778zm9.793 0v6.163l-.047 1.607L141 31.62h1.037v8.522h-.746V34.02l.031-1.646-5.066 7.77h-1.013V31.62h.738zm13.878 8.522h-.777V31.62h6.809v8.522h-.778v-7.785h-5.254v7.785zm12.55.158c-1.314 0-2.272-.492-2.874-1.475h-.055l.024.659c.021.387.031.81.031 1.27V44h-.778V31.62h.66l.149 1.215h.048c.586-.92 1.523-1.38 2.811-1.38 1.152 0 2.029.38 2.631 1.137.608.753.911 1.85.911 3.293 0 1.401-.319 2.488-.958 3.262-.633.768-1.5 1.152-2.6 1.152zm-.015-.69c.874 0 1.55-.325 2.026-.973.482-.648.723-1.555.723-2.72 0-2.504-.906-3.756-2.718-3.756-.995 0-1.725.274-2.191.823-.466.544-.699 1.432-.699 2.666v.25c0 1.334.223 2.285.668 2.855.45.57 1.18.854 2.191.854zm11.129.532l-.197-1.348h-.063c-.429.549-.871.938-1.327 1.168-.45.225-.984.337-1.602.337-.838 0-1.49-.214-1.956-.643-.466-.428-.699-1.021-.699-1.78 0-.83.346-1.476 1.037-1.936.696-.46 1.702-.703 3.016-.729l1.626-.047v-.565c0-.81-.165-1.421-.495-1.834-.33-.413-.861-.62-1.594-.62-.791 0-1.61.22-2.459.659l-.29-.674c.937-.44 1.864-.659 2.78-.659.937 0 1.636.243 2.097.73.466.485.699 1.243.699 2.273v5.669h-.573zm-3.142-.548c.911 0 1.628-.259 2.152-.776.529-.523.793-1.247.793-2.172v-.84l-1.492.064c-1.199.057-2.055.245-2.568.564-.508.314-.762.805-.762 1.474 0 .533.162.949.487 1.247.33.292.793.439 1.39.439zm14.278 3.442h-.777v-2.894h-7.014V31.62h.778v7.786h5.097V31.62h.77v7.786h1.146v3.63zm2.6-2.894h-.778V31.62h.778v8.522zm-.887-10.89c0-.502.164-.752.494-.752a.43.43 0 01.377.196c.095.13.142.316.142.556 0 .236-.047.421-.142.557a.425.425 0 01-.377.204c-.33 0-.494-.254-.494-.76z" fill="#656565"/> </symbol> <symbol id="symbols-symbols-symbols-symbol-arrow"> <path d="M.5 10.5l5-5-5-5" stroke-width="1.3"/> </symbol> </symbol><symbol id="symbols-symbols-symbols-symbols"><symbol id="symbols-symbols-symbols-symbols-symbols"><symbol id="symbols-symbols-symbols-symbols-symbols-symbols"><symbol id="symbols-symbols-symbols-symbols-symbols-symbols-symbols"><symbol id="symbols-symbols-symbols-symbols-symbols-symbols-symbols-symbols"><symbol id="symbols-symbols-symbols-symbols-symbols-symbols-symbols-symbols-symbols"/></symbol></symbol></symbol></symbol></symbol></symbol></symbol></symbol></svg>