<svg width="30" height="30" fill="none" xmlns="http://www.w3.org/2000/svg"><path d="M29.992 13.713a.611.611 0 00-.033-.167c-.007-.02-.012-.04-.02-.058a.617.617 0 00-.12-.177c0-.002-.002-.002-.003-.004L26.25 9.741V6.25c0-.013-.007-.025-.008-.038a.624.624 0 00-.032-.162c-.007-.02-.012-.039-.02-.058a.624.624 0 00-.123-.183L20.442.184a.628.628 0 00-.182-.122c-.02-.01-.04-.015-.062-.022a.63.63 0 00-.155-.031C20.027.008 20.014 0 20 0H4.375a.625.625 0 00-.625.625v9.116L.184 13.307l-.003.004a.609.609 0 00-.12.177c-.008.018-.013.038-.02.058a.625.625 0 00-.034.167c0 .013-.007.024-.007.037v11.875c0 .345.28.625.625.625H3.75v3.125c0 .345.28.625.625.625h21.25c.346 0 .625-.28.625-.625V26.25h3.125c.346 0 .625-.28.625-.625V13.75c0-.013-.007-.024-.008-.037zm-2.126-.588H26.25v-1.616l1.616 1.616zm-3.75-7.5h-3.491V2.134l3.491 3.491zM5 1.25h14.375v5c0 .345.28.625.625.625h5v6.25H5V1.25zM3.75 11.509v1.616H2.134l1.616-1.616zM25 28.75H5v-2.5h20v2.5zM28.75 25H1.25V14.375h27.5V25z" fill="#00B543"/><path d="M8.859 16.227H6.968v7.523h1.88c.97 0 1.706-.328 2.205-.983.5-.655.749-1.578.749-2.768 0-1.19-.25-2.116-.749-2.778-.5-.662-1.231-.994-2.194-.994zm1.545 4.925c-.08.33-.197.604-.345.824-.149.219-.326.384-.531.493-.206.11-.43.165-.67.165h-.605v-5.29h.605c.24 0 .464.054.67.163.205.11.382.275.53.495.15.22.264.495.346.829.082.333.122.722.122 1.168 0 .44-.04.824-.122 1.153zM20.663 18.034c.128-.248.287-.445.478-.59.192-.145.415-.218.67-.218.46 0 .835.209 1.126.627l.733-.892a2.053 2.053 0 00-.797-.686c-.326-.16-.705-.239-1.137-.239-.418 0-.799.098-1.142.292a2.642 2.642 0 00-.877.818c-.24.351-.426.769-.557 1.254a6.073 6.073 0 00-.197 1.589c0 .573.066 1.101.197 1.583s.315.897.552 1.248c.238.351.528.626.872.824.343.198.728.297 1.153.297.467 0 .855-.092 1.163-.276.308-.184.561-.425.76-.723l-.734-.86c-.12.184-.27.34-.451.467-.18.128-.395.192-.643.192-.261 0-.49-.073-.685-.218a1.666 1.666 0 01-.483-.59 3.224 3.224 0 01-.287-.877 5.72 5.72 0 01-.096-1.067c0-.383.032-.742.096-1.079.063-.336.159-.628.286-.876zM17.38 17.12a2.498 2.498 0 00-.855-.803 2.284 2.284 0 00-1.131-.28c-.425 0-.806.093-1.142.28a2.5 2.5 0 00-.855.803c-.234.347-.41.761-.531 1.243-.121.482-.181 1.02-.181 1.615s.062 1.135.186 1.62c.124.486.303.902.537 1.249.233.347.516.616.85.807.333.192.711.287 1.136.287.418 0 .795-.095 1.132-.287.336-.19.62-.46.855-.807.233-.347.412-.763.536-1.249a6.552 6.552 0 00.186-1.62c0-.595-.062-1.133-.186-1.615a3.992 3.992 0 00-.537-1.243zm-.68 3.936a3.37 3.37 0 01-.26.877 1.637 1.637 0 01-.436.584.937.937 0 01-.61.213.937.937 0 01-.612-.213 1.64 1.64 0 01-.436-.584 3.37 3.37 0 01-.26-.877A6.466 6.466 0 0114 19.978c0-.382.028-.742.085-1.079.056-.336.143-.626.26-.87.117-.245.262-.438.436-.58a.937.937 0 01.611-.212c.227 0 .427.07.6.212.174.142.319.335.436.58.117.244.205.534.265.87.06.337.091.697.091 1.08 0 .382-.028.741-.085 1.077z" fill="#00B543"/></svg>