<svg width="30" height="30" fill="none" xmlns="http://www.w3.org/2000/svg"><path d="M29.992 13.711a.62.62 0 00-.033-.165c-.007-.02-.012-.04-.02-.058a.597.597 0 00-.122-.179L26.25 9.74V6.25c0-.014-.007-.026-.008-.04a.645.645 0 00-.032-.16c-.007-.02-.012-.04-.021-.059a.624.624 0 00-.123-.183L20.441.183a.619.619 0 00-.183-.123L20.2.04a.623.623 0 00-.165-.033C20.024.007 20.012 0 20 0H4.375a.625.625 0 00-.625.625v9.116L.183 13.308l-.001.001a.612.612 0 00-.12.179c-.009.019-.014.038-.02.058a.596.596 0 00-.034.165c-.001.014-.008.025-.008.039v11.875c0 .345.28.625.625.625H3.75v3.125c0 .345.28.625.625.625h21.25c.345 0 .625-.28.625-.625V26.25h3.125c.345 0 .625-.28.625-.625V13.75c0-.014-.007-.025-.008-.039zm-2.126-.586H26.25v-1.616l1.616 1.616zm-3.75-7.5h-3.491V2.134l3.491 3.491zM5 1.25h14.375v5c0 .345.28.625.625.625h5v6.25H5V1.25zM3.75 11.509v1.616H2.134l1.616-1.616zM25 28.75H5v-2.5h20v2.5zM28.75 25H1.25V14.375h27.5V25z" fill="#656565"/><path d="M11.409 16.7a1.762 1.762 0 00-.686-.366 2.784 2.784 0 00-.744-.107H7.897v7.523H9.15v-3.017h.892c.262 0 .517-.047.765-.139.248-.091.468-.233.659-.425.191-.19.345-.43.462-.717.117-.287.176-.621.176-1.004 0-.425-.066-.78-.197-1.062a1.994 1.994 0 00-.5-.686zm-.802 2.678a.95.95 0 01-.733.313H9.15v-2.39h.723c.297 0 .542.091.733.276.191.184.287.478.287.882s-.096.71-.287.92zM19.202 23.75h1.285v-3.23h1.924v-1.094h-1.934v-2.051h2.093v-1.148h-3.368v7.523zM15.047 16.227h-1.89v7.523h1.88c.97 0 1.705-.328 2.205-.983s.749-1.578.749-2.768c0-1.19-.25-2.116-.75-2.778-.498-.662-1.23-.994-2.194-.994zm1.547 4.925c-.082.33-.197.604-.345.824a1.49 1.49 0 01-.531.493c-.206.11-.43.165-.67.165h-.605v-5.29h.605c.24 0 .464.054.67.164.205.11.382.274.53.494.15.22.264.495.346.829.081.333.122.722.122 1.168 0 .44-.041.824-.122 1.153z" fill="#656565"/></svg>